# xmcd CD database file
#
# Track frame offsets:
#	151
#	13846
#	27233
#	40934
#	54805
#	66356
#	78701
#	90850
#	103495
#	117302
#	133441
#	148356
#	166137
#	176078
#	189629
#	201340
#
# Disc length: 2845 seconds
#
# Revision: 0
# Processed by: cddbd v1.5.1PL2 Copyright (c) Steve Scherf et al.
# Submitted via: CDex 1.50
#
DISCID=ee0b1b10
DTITLE=Teodoro e Sampaio - Raizes Sertanejas
DYEAR=1900
DGENRE=Country
TTITLE0=Pinga ne mim
TTITLE1=Vestido de Seda
TTITLE2=Porta Fechada
TTITLE3=Casaco Verde
TTITLE4=Cão de Guarda
TTITLE5=Sete Noites de Paixão
TTITLE6=Consulte seu Coração
TTITLE7=Cunhada
TTITLE8=Água no Leite (o leiteiro e o macaco)
TTITLE9=To Apaixonado
TTITLE10=Esta Noite Te Amarei
TTITLE11=Rock da Casa Fechada
TTITLE12=Dois Fogão
TTITLE13=Não Sou Páreo pra Você
TTITLE14=Estrela Caída
TTITLE15=Carisma
EXTD=
EXTT0=
EXTT1=
EXTT2=
EXTT3=
EXTT4=
EXTT5=
EXTT6=
EXTT7=
EXTT8=
EXTT9=
EXTT10=
EXTT11=
EXTT12=
EXTT13=
EXTT14=
EXTT15=
PLAYORDER=
